<svg xmlns="http://www.w3.org/2000/svg" width="1200" height="630" viewBox="0 0 1200 630" role="img" aria-labelledby="title desc">
  <title id="title">BDsite — календарь дней рождения</title>
  <desc id="desc">Обложка BDsite для социальных сетей</desc>
  <rect width="1200" height="630" fill="#0b0b0c"/>
  <rect x="64" y="64" width="1072" height="502" rx="28" fill="#141417" stroke="#2a2a2e" stroke-width="2"/>
  <text x="116" y="176" fill="#f8fafc" font-family="Arial, sans-serif" font-size="72" font-weight="700">BDsite</text>
  <text x="116" y="248" fill="#a7a7ad" font-family="Arial, sans-serif" font-size="34">Календарь дней рождения</text>
  <text x="116" y="318" fill="#e7e7ea" font-family="Arial, sans-serif" font-size="30">Добавляй людей, заметки и получай email-напоминания</text>
  <g transform="translate(116 380)">
    <rect width="52" height="52" rx="8" fill="#22c55e"/>
    <rect x="68" width="52" height="52" rx="8" fill="#27272a" stroke="#3f3f46"/>
    <rect x="136" width="52" height="52" rx="8" fill="#27272a" stroke="#3f3f46"/>
    <rect x="204" width="52" height="52" rx="8" fill="#22c55e"/>
    <rect x="272" width="52" height="52" rx="8" fill="#27272a" stroke="#3f3f46"/>
    <rect y="68" width="52" height="52" rx="8" fill="#27272a" stroke="#3f3f46"/>
    <rect x="68" y="68" width="52" height="52" rx="8" fill="#22c55e"/>
    <rect x="136" y="68" width="52" height="52" rx="8" fill="#27272a" stroke="#3f3f46"/>
    <rect x="204" y="68" width="52" height="52" rx="8" fill="#27272a" stroke="#3f3f46"/>
    <rect x="272" y="68" width="52" height="52" rx="8" fill="#22c55e"/>
  </g>
  <text x="788" y="456" fill="#22c55e" font-family="Arial, sans-serif" font-size="118" font-weight="700">365</text>
  <text x="790" y="504" fill="#a7a7ad" font-family="Arial, sans-serif" font-size="28">дней под контролем</text>
</svg>
